HIERARCHY
ROOT Hips
{
  OFFSET 377.763 88.2609 174.383
  CHANNELS 6 Xposition Yposition Zposition Zrotation Xrotation Yrotation
  JOINT RightUpLeg
  {
    OFFSET -9.30536 -1.56319 -0.0308412
    CHANNELS 3 Zrotation Xrotation Yrotation
    JOINT RightLeg
    {
      OFFSET -0.0509473 -41.8867 0.0408735
      CHANNELS 3 Zrotation Xrotation Yrotation
      JOINT RightFoot
      {
        OFFSET -0.135761 -42.7852 -0.897951
        CHANNELS 3 Zrotation Xrotation Yrotation
        End Site
        {
          OFFSET 0 -7.69 17.5
        }
      }
    }
  }
  JOINT LeftUpLeg
  {
    OFFSET 9.25165 -1.62789 -0.00729124
    CHANNELS 3 Zrotation Xrotation Yrotation
    JOINT LeftLeg
    {
      OFFSET 0.024936 -41.8804 0.00207043
      CHANNELS 3 Zrotation Xrotation Yrotation
      JOINT LeftFoot
      {
        OFFSET 0.245063 -40.7505 0.529473
        CHANNELS 3 Zrotation Xrotation Yrotation
        End Site
        {
          OFFSET 0 -7.69 17.5
        }
      }
    }
  }
  JOINT Spine
  {
    OFFSET 0.0381636 14.2969 0.0214663
    CHANNELS 3 Zrotation Xrotation Yrotation
    JOINT Spine1
    {
      OFFSET 0.0273681 9.71499 0.0100001
      CHANNELS 3 Zrotation Xrotation Yrotation
      JOINT Spine2
      {
        OFFSET 0.029022 10.1215 -0.000399631
        CHANNELS 3 Zrotation Xrotation Yrotation
        JOINT Spine3
        {
          OFFSET 0.0290531 9.71322 0.0107928
          CHANNELS 3 Zrotation Xrotation Yrotation
          JOINT Neck
          {
            OFFSET 0.0830829 10.3832 0.0498053
            CHANNELS 3 Zrotation Xrotation Yrotation
            JOINT Head
            {
              OFFSET 0.0700972 9.47827 0.0499309
              CHANNELS 3 Zrotation Xrotation Yrotation
              End Site
              {
                OFFSET 0 15.95 0
              }
            }
          }
          JOINT RightShoulder
          {
            OFFSET -3.16088 6.93633 0.0290789
            CHANNELS 3 Zrotation Xrotation Yrotation
            JOINT RightArm
            {
              OFFSET -12.7509 0.028765 0.0682708
              CHANNELS 3 Zrotation Xrotation Yrotation
              JOINT RightForeArm
              {
                OFFSET -26.5067 -0.0728143 0.13822
                CHANNELS 3 Zrotation Xrotation Yrotation
                JOINT RightHand
                {
                  OFFSET -25.9897 -0.0664148 0.00141744
                  CHANNELS 3 Zrotation Xrotation Yrotation
                  JOINT RightHandThumb1
                  {
                    OFFSET -2.48905 0.190105 3.12053
                    CHANNELS 3 Zrotation Xrotation Yrotation
                    JOINT RightHandThumb2
                    {
                      OFFSET -3.68274 0 0
                      CHANNELS 3 Zrotation Xrotation Yrotation
                      JOINT RightHandThumb3
                      {
                        OFFSET -2.55832 0 0
                        CHANNELS 3 Zrotation Xrotation Yrotation
                        End Site
                        {
                          OFFSET -2.194 0 0
                        }
                      }
                    }
                  }
                  JOINT RightInHandIndex
                  {
                    OFFSET -3.22368 0.508421 1.97842
                    CHANNELS 3 Zrotation Xrotation Yrotation
                    JOINT RightHandIndex1
                    {
                      OFFSET -5.21684 -0.091368 0.999158
                      CHANNELS 3 Zrotation Xrotation Yrotation
                      JOINT RightHandIndex2
                      {
                        OFFSET -3.61937 0 0
                        CHANNELS 3 Zrotation Xrotation Yrotation
                        JOINT RightHandIndex3
                        {
                          OFFSET -2.0521 0 0
                          CHANNELS 3 Zrotation Xrotation Yrotation
                          End Site
                          {
                            OFFSET -1.805 0 0
                          }
                        }
                      }
                    }
                  }
                  JOINT RightInHandMiddle
                  {
                    OFFSET -3.38211 0.517263 0.756737
                    CHANNELS 3 Zrotation Xrotation Yrotation
                    JOINT RightHandMiddle1
                    {
                      OFFSET -5.17411 -0.084 0.313895
                      CHANNELS 3 Zrotation Xrotation Yrotation
                      JOINT RightHandMiddle2
                      {
                        OFFSET -3.94947 0 0
                        CHANNELS 3 Zrotation Xrotation Yrotation
                        JOINT RightHandMiddle3
                        {
                          OFFSET -2.47579 0 0
                          CHANNELS 3 Zrotation Xrotation Yrotation
                          End Site
                          {
                            OFFSET -1.975 0 0
                          }
                        }
                      }
                    }
                  }
                  JOINT RightInHandRing
                  {
                    OFFSET -3.36516 0.537895 -0.128947
                    CHANNELS 3 Zrotation Xrotation Yrotation
                    JOINT RightHandRing1
                    {
                      OFFSET -4.63474 -0.022105 -0.478947
                      CHANNELS 3 Zrotation Xrotation Yrotation
                      JOINT RightHandRing2
                      {
                        OFFSET -3.44238 0 0
                        CHANNELS 3 Zrotation Xrotation Yrotation
                        JOINT RightHandRing3
                        {
                          OFFSET -2.3881 0 0
                          CHANNELS 3 Zrotation Xrotation Yrotation
                          End Site
                          {
                            OFFSET -1.857 0 0
                          }
                        }
                      }
                    }
                  }
                  JOINT RightInHandPinky
                  {
                    OFFSET -3.16105 0.469368 -1.20179
                    CHANNELS 3 Zrotation Xrotation Yrotation
                    JOINT RightHandPinky1
                    {
                      OFFSET -4.14105 -0.022105 -1.09053
                      CHANNELS 3 Zrotation Xrotation Yrotation
                      JOINT RightHandPinky2
                      {
                        OFFSET -2.75653 0 0
                        CHANNELS 3 Zrotation Xrotation Yrotation
                        JOINT RightHandPinky3
                        {
                          OFFSET -1.74189 0 0
                          CHANNELS 3 Zrotation Xrotation Yrotation
                          End Site
                          {
                            OFFSET -1.645 0 0
                          }
                        }
                      }
                    }
                  }
                }
              }
            }
          }
          JOINT LeftShoulder
          {
            OFFSET 3.23403 6.91572 -0.0126821
            CHANNELS 3 Zrotation Xrotation Yrotation
            JOINT LeftArm
            {
              OFFSET 12.8488 -0.0444641 -0.0528339
              CHANNELS 3 Zrotation Xrotation Yrotation
              JOINT LeftForeArm
              {
                OFFSET 26.4942 -0.0237746 -0.09002
                CHANNELS 3 Zrotation Xrotation Yrotation
                JOINT LeftHand
                {
                  OFFSET 25.9989 -0.00653758 -0.026747
                  CHANNELS 3 Zrotation Xrotation Yrotation
                  JOINT LeftHandThumb1
                  {
                    OFFSET 2.48905 0.190105 3.12053
                    CHANNELS 3 Zrotation Xrotation Yrotation
                    JOINT LeftHandThumb2
                    {
                      OFFSET 3.68274 0 0
                      CHANNELS 3 Zrotation Xrotation Yrotation
                      JOINT LeftHandThumb3
                      {
                        OFFSET 2.55832 0 0
                        CHANNELS 3 Zrotation Xrotation Yrotation
                        End Site
                        {
                          OFFSET 2.194 0 0
                        }
                      }
                    }
                  }
                  JOINT LeftInHandIndex
                  {
                    OFFSET 3.22368 0.508421 1.97842
                    CHANNELS 3 Zrotation Xrotation Yrotation
                    JOINT LeftHandIndex1
                    {
                      OFFSET 5.21684 -0.091368 0.999158
                      CHANNELS 3 Zrotation Xrotation Yrotation
                      JOINT LeftHandIndex2
                      {
                        OFFSET 3.61937 0 0
                        CHANNELS 3 Zrotation Xrotation Yrotation
                        JOINT LeftHandIndex3
                        {
                          OFFSET 2.0521 0 0
                          CHANNELS 3 Zrotation Xrotation Yrotation
                          End Site
                          {
                            OFFSET 1.805 0 0
                          }
                        }
                      }
                    }
                  }
                  JOINT LeftInHandMiddle
                  {
                    OFFSET 3.38211 0.517263 0.756737
                    CHANNELS 3 Zrotation Xrotation Yrotation
                    JOINT LeftHandMiddle1
                    {
                      OFFSET 5.17411 -0.084 0.313895
                      CHANNELS 3 Zrotation Xrotation Yrotation
                      JOINT LeftHandMiddle2
                      {
                        OFFSET 3.94947 0 0
                        CHANNELS 3 Zrotation Xrotation Yrotation
                        JOINT LeftHandMiddle3
                        {
                          OFFSET 2.47579 0 0
                          CHANNELS 3 Zrotation Xrotation Yrotation
                          End Site
                          {
                            OFFSET 1.975 0 0
                          }
                        }
                      }
                    }
                  }
                  JOINT LeftInHandRing
                  {
                    OFFSET 3.36516 0.537895 -0.128947
                    CHANNELS 3 Zrotation Xrotation Yrotation
                    JOINT LeftHandRing1
                    {
                      OFFSET 4.63474 -0.022105 -0.478947
                      CHANNELS 3 Zrotation Xrotation Yrotation
                      JOINT LeftHandRing2
                      {
                        OFFSET 3.44238 0 0
                        CHANNELS 3 Zrotation Xrotation Yrotation
                        JOINT LeftHandRing3
                        {
                          OFFSET 2.3881 0 0
                          CHANNELS 3 Zrotation Xrotation Yrotation
                          End Site
                          {
                            OFFSET 1.857 0 0
                          }
                        }
                      }
                    }
                  }
                  JOINT LeftInHandPinky
                  {
                    OFFSET 3.16105 0.469368 -1.20179
                    CHANNELS 3 Zrotation Xrotation Yrotation
                    JOINT LeftHandPinky1
                    {
                      OFFSET 4.14105 -0.022105 -1.09053
                      CHANNELS 3 Zrotation Xrotation Yrotation
                      JOINT LeftHandPinky2
                      {
                        OFFSET 2.75653 0 0
                        CHANNELS 3 Zrotation Xrotation Yrotation
                        JOINT LeftHandPinky3
                        {
                          OFFSET 1.74189 0 0
                          CHANNELS 3 Zrotation Xrotation Yrotation
                          End Site
                          {
                            OFFSET 1.645 0 0
                          }
                        }
                      }
                    }
                  }
                }
              }
            }
          }
        }
      }
    }
  }
}
MOTION
Frames: 2
Frame Time: 0.00833333
1.278901938286352788e+03 8.891971179989570828e+01 1.767996917742520395e+02 2.783534815473803548e+01 1.046284339215820047e+01 -6.130328088374491102e+01 -3.247955827450740429e+01 -5.442573318673044724e+01 -3.429643753951503271e+01 1.953661389376730728e-01 2.138096585739725697e+01 -7.872310272873488834e+00 9.004832218958892298e+00 7.279146184758808147e+00 2.234639876716559215e+01 9.557281641329524291e+00 -5.293535126629373622e+01 -8.700805782646003905e-02 4.950284140632398078e+00 3.055702496837896476e+01 1.441484666080498078e+00 -1.464387208036734656e+01 -9.032070705295428326e+00 -2.102828270220364004e+01 -6.747676729399759488e+00 1.270615702641109479e+01 1.742135899793424159e+01 -1.401843518576835645e+00 3.199371524990118232e+00 4.257673750107167088e+00 -2.379576774821944962e+00 5.148317801260903437e+00 6.935072611807183485e+00 -3.378108827373534351e-01 -2.434935908078455502e-01 -7.842764369113337519e-01 -9.422436681686471860e-02 1.321774136727158488e+00 -8.797836468360364037e+00 -6.165937528579962468e+00 -7.476355616791139802e+00 -9.637569492250374736e+00 -2.902890901984558347e-01 -1.073865617327563449e+01 2.527498772176319264e+01 7.169020816354168346e+01 3.707184997412540817e+00 5.719073974378064662e+01 3.598387729706021076e+01 -5.718008833422841519e+01 1.604265964675843748e+01 1.774216705760503032e+01 -1.211145481360192377e+01 -2.285801497449192254e+01 2.818400000000000105e+01 1.072940000000000005e+01 1.915919999999999845e+01 8.428765160936813324e-15 1.093546073908863242e-14 -1.000000000000000000e+01 1.951482711888201267e-14 9.477762495028480197e-15 -1.000000000000000000e+01 2.717614041490505013e-15 -4.883441832009297352e-16 -2.556545774446456372e-15 1.998179999999999978e+01 8.718970000000000331e-01 2.396399999999999864e+00 2.400000000000000000e+01 4.187974251355625235e-15 -2.257197372258930966e-15 2.000000000000000000e+01 6.091965956964435039e-15 3.753212037899983058e-14 2.717614041490505013e-15 -4.883441832009297352e-16 -2.556545774446456372e-15 2.000000000000000000e+01 -1.004889986090539901e-15 -7.562171282250550881e-16 2.400000000000000000e+01 1.025701994731606759e-15 1.746133966785119567e-15 2.000000000000000000e+01 3.848147060911160930e-15 4.418537063911639320e-14 2.717614041490505013e-15 -4.883441832009297352e-16 -2.556545774446456372e-15 1.997479999999999833e+01 -1.025649999999999951e+00 -2.819380000000000219e+00 2.400000000000000000e+01 7.278276855603242115e-15 1.294049380038443467e-14 2.000000000000000000e+01 1.242577245633495964e-14 3.745584003836030216e-14 2.717614041490505013e-15 -4.883441832009297352e-16 -2.556545774446456372e-15 1.978150000000000119e+01 -3.009479999999999933e+00 -8.305149999999999366e+00 2.400000000000000000e+01 1.862181656794764579e-15 3.055400575435282999e-15 2.000000000000000000e+01 5.829435563213458354e-15 3.414567300970661276e-14 1.028001193412288394e+01 -1.026926449184591661e+01 -2.661099996009072655e+01 -5.357828658397814081e+01 2.673333641197953625e+01 -6.159363696217377537e+01 -2.564287422755224810e-01 -6.688489300846478613e+01 3.537676160192404495e-02 -2.361689089353471971e+01 -1.840531440929991192e+01 1.067414761411526136e+01 -2.818400000000000105e+01 1.072940000000000005e+01 -1.915919999999999845e+01 -6.831872594639021830e-15 1.703797862839770859e-15 1.000000000000000000e+01 -1.120141966096678430e-14 -1.772209276567147515e-15 1.000000000000000000e+01 -9.353323709282125948e-15 -1.457473772305792411e-15 -2.572602228696224759e-15 -1.998179999999999978e+01 8.718970000000000331e-01 -2.396399999999999864e+00 -2.400000000000000000e+01 -1.347228811358543533e-15 -3.917332219644374887e-15 -2.000000000000000000e+01 -3.389318333425003629e-15 4.164228442542051126e-15 -9.353323709282125948e-15 -1.457473772305792411e-15 -2.572602228696224759e-15 -2.000000000000000000e+01 -5.228947273510365943e-15 5.151524683369434452e-15 -2.400000000000000000e+01 1.815193907623390373e-15 -5.911981102774704711e-15 -2.000000000000000000e+01 7.845650119916932922e-16 -3.327999689898702862e-15 -9.353323709282125948e-15 -1.457473772305792411e-15 -2.572602228696224759e-15 -1.997479999999999833e+01 -1.025649999999999951e+00 2.819380000000000219e+00 -2.400000000000000000e+01 -8.513579640249520108e-16 8.704312194779801341e-15 -2.000000000000000000e+01 -3.085080743245047861e-15 7.375641274620960860e-15 -9.353323709282125948e-15 -1.457473772305792411e-15 -2.572602228696224759e-15 -1.978150000000000119e+01 -3.009479999999999933e+00 8.305149999999999366e+00 -2.400000000000000000e+01 -7.438373340658454707e-17 3.935414154401584934e-15 -2.000000000000000000e+01 -7.275721083604807612e-15 1.625901356571825633e-14
1.278846531436690839e+03 8.889772342040731701e+01 1.767419625996102468e+02 2.789305469923057501e+01 1.042087092530799808e+01 -6.189229922325901612e+01 -3.201650641007275766e+01 -5.453420703791585566e+01 -3.393419046987163767e+01 1.385784488371870626e-01 2.136652498391791966e+01 -7.736362031739375311e+00 8.958420739664710197e+00 7.355550406943414998e+00 2.260164490392504177e+01 9.875759908519778918e+00 -5.278953740163564845e+01 1.796460074635861659e-01 4.700578838930353776e+00 3.064431690756321203e+01 1.649964842158132772e+00 -1.457273789215703630e+01 -9.128687073511448702e+00 -2.077778516413113508e+01 -6.749281469757238305e+00 1.259114451136239410e+01 1.719203117055748464e+01 -1.405744281370941096e+00 3.173218688318051761e+00 4.198492684021645438e+00 -2.384878567395466664e+00 5.107642136054012738e+00 6.838864103384338478e+00 -3.455416014528057689e-01 -2.483622200360321441e-01 -7.507298649647449196e-01 -1.059927807297429275e-01 1.250759700362282123e+00 -8.414916392504387943e+00 -6.302000696476012465e+00 -7.422801151681508891e+00 -9.220188450853100903e+00 -2.598238670149389806e-01 -1.061080102496332245e+01 2.509623372999296365e+01 7.162857955615302785e+01 3.182079899088585684e+00 5.682561844888020630e+01 3.628156896199156733e+01 -5.707215426804300762e+01 1.694278514287998050e+01 1.764235429519952447e+01 -1.222410880590324567e+01 -2.267357424311640202e+01 2.818400000000000105e+01 1.072940000000000005e+01 1.915919999999999845e+01 8.365981893797195347e-15 1.089017959726594444e-14 -1.000000000000000000e+01 1.940683991552660689e-14 9.450834304910537449e-15 -1.000000000000000000e+01 2.685797562310630019e-15 -4.659124857973084793e-16 -2.541215308129147693e-15 1.998179999999999978e+01 8.718970000000000331e-01 2.396399999999999864e+00 2.400000000000000000e+01 4.146690938219287877e-15 -2.357298488019731286e-15 2.000000000000000000e+01 6.041648392569178134e-15 3.722098226229558010e-14 2.685797562310630019e-15 -4.659124857973084793e-16 -2.541215308129147693e-15 2.000000000000000000e+01 -1.012860029200293095e-15 -8.345138474564784682e-16 2.400000000000000000e+01 1.046639191648262868e-15 1.634579475217974815e-15 2.000000000000000000e+01 3.780941734097206226e-15 4.380601952884942458e-14 2.685797562310630019e-15 -4.659124857973084793e-16 -2.541215308129147693e-15 1.997479999999999833e+01 -1.025649999999999951e+00 -2.819380000000000219e+00 2.400000000000000000e+01 7.234658884424888161e-15 1.286714178641365368e-14 2.000000000000000000e+01 1.237952023825068320e-14 3.719202251376871747e-14 2.685797562310630019e-15 -4.659124857973084793e-16 -2.541215308129147693e-15 1.978150000000000119e+01 -3.009479999999999933e+00 -8.305149999999999366e+00 2.400000000000000000e+01 1.844705531538328827e-15 3.016603351785250938e-15 2.000000000000000000e+01 5.762717554017052034e-15 3.383783471601693024e-14 1.021216141287360202e+01 -1.034351028051379018e+01 -2.685155490377607279e+01 -5.324612298838161450e+01 2.674296654984468802e+01 -6.193697691983638975e+01 3.862875893960939777e-01 -6.635488949090211008e+01 4.811711342809292802e-01 -2.371997943230364925e+01 -1.837300511356877664e+01 1.060937440219899486e+01 -2.818400000000000105e+01 1.072940000000000005e+01 -1.915919999999999845e+01 -6.845081199871744008e-15 1.719088886192889328e-15 1.000000000000000000e+01 -1.121751162899218289e-14 -1.767426387677613676e-15 1.000000000000000000e+01 -9.339221779496740666e-15 -1.498808876568168506e-15 -2.570846722148867512e-15 -1.998179999999999978e+01 8.718970000000000331e-01 -2.396399999999999864e+00 -2.400000000000000000e+01 -1.313095932100319600e-15 -3.924150388246865111e-15 -2.000000000000000000e+01 -3.379114562680948682e-15 4.279255429962817905e-15 -9.339221779496740666e-15 -1.498808876568168506e-15 -2.570846722148867512e-15 -2.000000000000000000e+01 -5.230790420522733814e-15 5.134941983259203494e-15 -2.400000000000000000e+01 1.837769032885738052e-15 -5.882111982224569690e-15 -2.000000000000000000e+01 7.409871469098823027e-16 -3.178416690691261347e-15 -9.339221779496740666e-15 -1.498808876568168506e-15 -2.570846722148867512e-15 -1.997479999999999833e+01 -1.025649999999999951e+00 2.819380000000000219e+00 -2.400000000000000000e+01 -8.318726580198462819e-16 8.682875575765866796e-15 -2.000000000000000000e+01 -3.107859618810695991e-15 7.453826782209588016e-15 -9.339221779496740666e-15 -1.498808876568168506e-15 -2.570846722148867512e-15 -1.978150000000000119e+01 -3.009479999999999933e+00 8.305149999999999366e+00 -2.400000000000000000e+01 -7.557513263675241641e-17 3.929906076800481054e-15 -2.000000000000000000e+01 -7.297320430539463260e-15 1.624791891637122657e-14
